# xmcd
#
# Track frame offsets:
#	150
#	11057
#	23725
#	40372
#	53902
#	67660
#	80602
#	95995
#	107920
#	119992
#	133972
#	147795
#	164540
#	183437
#	200092
#	209970
#
# Disc length: 3062 seconds
#
# Revision: 1
# Processed by: cddbd v1.5.2PL0 Copyright (c) Steve Scherf et al.
# Submitted via: Antz-MP3Processor 1.0.0
#
DISCID=000bf410
DTITLE=John Sebastian - Real Live (1971)
DYEAR=1971
DGENRE=
TTITLE0=Mobile Line
TTITLE1=Lovin' You
TTITLE2=Fishin' Blues
TTITLE3=Younger Girl
TTITLE4=Did You Ever Have to Make Up Your Mind
TTITLE5=Rooty-Toot
TTITLE6=In the Still of the Night
TTITLE7=Blue Suede Shoes
TTITLE8=Nashville Cats
TTITLE9=Waiting for A Train
TTITLE10=My Gal
TTITLE11=Younger Generation
TTITLE12=Darlin' Be Home Soon
TTITLE13=Blues for Dad and Jb's Happy Harmonica
TTITLE14=Amy's Theme
TTITLE15=Goodnight Irene
EXTD=
EXTT0=
EXTT1=
EXTT2=
EXTT3=
EXTT4=
EXTT5=
EXTT6=
EXTT7=
EXTT8=
EXTT9=
EXTT10=
EXTT11=
EXTT12=
EXTT13=
EXTT14=
EXTT15=
PLAYORDER=
